<svg xmlns="http://www.w3.org/2000/svg" version="1.1" xmlnsXlink="http://www.w3.org/1999/xlink" xmlnsSvgjs="http://svgjs.dev/svgjs" width="1000" height="280" viewBox="0 0 1000 280"><g transform="matrix(1,0,0,1,-0.6060606060606233,-0.472128246646605)"><svg viewBox="0 0 396 111" data-background-color="#ffffff" preserveAspectRatio="xMidYMid meet" height="280" width="1000" xmlns="http://www.w3.org/2000/svg" xmlnsXlink="http://www.w3.org/1999/xlink"><g id="tight-bounds" transform="matrix(1,0,0,1,0.2400000000000091,0.18716512634918558)"><svg viewBox="0 0 395.52 110.62562063735257" height="110.62562063735257" width="395.52"><g><svg viewBox="0 0 594.5724545690659 166.29992617459808" height="110.62562063735257" width="395.52"><g transform="matrix(1,0,0,1,199.0524545690659,48.465657615260554)"><svg viewBox="0 0 395.52 69.36861094407698" height="69.36861094407698" width="395.52"><g><svg viewBox="0 0 395.52 69.36861094407698" height="69.36861094407698" width="395.52"><g><svg viewBox="0 0 395.52 69.36861094407698" height="69.36861094407698" width="395.52"><g transform="matrix(1,0,0,1,0,0)"><svg width="395.52" viewBox="1.9 -43.35 249.43 43.75" height="69.36861094407698" data-palette-color="#000000"><path d="M10.45 0L1.9 0 1.9-42.95 10.45-42.95 10.45-27.6 14.5-27.6 14.5-42.95 23.05-42.95 23.05 0 14.5 0 14.5-19.5 10.45-19.5 10.45 0ZM37.1 0.4Q31.9 0.4 29.2-2.78 26.5-5.95 26.5-11.7L26.5-11.7 26.5-32.15Q26.5-37.7 29.2-40.53 31.9-43.35 37.1-43.35L37.1-43.35Q42.3-43.35 45-40.53 47.7-37.7 47.7-32.15L47.7-32.15 47.7-11.7Q47.7-5.9 45-2.75 42.3 0.4 37.1 0.4L37.1 0.4ZM37.1-7.5Q38.25-7.5 38.65-8.5 39.05-9.5 39.05-11.3L39.05-11.3 39.05-32.3Q39.05-33.7 38.67-34.58 38.3-35.45 37.15-35.45L37.15-35.45Q35-35.45 35-32.2L35-32.2 35-11.25Q35-9.4 35.45-8.45 35.9-7.5 37.1-7.5L37.1-7.5ZM58.9 0L51.15 0 51.15-42.95 64.25-42.95 67.84-16.75 71.45-42.95 84.65-42.95 84.65 0 76.8 0 76.8-30.95 71.84 0 64.15 0 58.9-30.95 58.9 0ZM106.19 0L88.44 0 88.44-42.95 105.64-42.95 105.64-34.65 97.19-34.65 97.19-26.3 105.29-26.3 105.29-18.2 97.19-18.2 97.19-8.35 106.19-8.35 106.19 0ZM117.59 0L109.04 0 109.04-42.95 117.59-42.95 117.59-27.6 121.64-27.6 121.64-42.95 130.19-42.95 130.19 0 121.64 0 121.64-19.5 117.59-19.5 117.59 0ZM141.19 0L132.84 0 136.99-42.95 151.54-42.95 155.64 0 147.49 0 146.89-6.95 141.69-6.95 141.19 0ZM143.94-35.65L142.34-13.8 146.24-13.8 144.34-35.65 143.94-35.65ZM158.24 0L158.24-42.95 171.44-42.95Q174.59-42.95 176.31-41.53 178.04-40.1 178.64-37.52 179.24-34.95 179.24-30.95L179.24-30.95Q179.24-27.3 178.29-25.25 177.34-23.2 174.99-22.4L174.99-22.4Q176.94-22 177.81-20.45 178.69-18.9 178.69-16.25L178.69-16.25 178.59 0 170.19 0 170.19-16.8Q170.19-18.6 169.49-19.1 168.79-19.6 166.94-19.6L166.94-19.6 166.94 0 158.24 0ZM166.99-27.05L169.04-27.05Q170.84-27.05 170.84-30.95L170.84-30.95Q170.84-32.65 170.69-33.5 170.54-34.35 170.14-34.68 169.74-35 168.99-35L168.99-35 166.99-35 166.99-27.05ZM182.08 0L182.08-42.95 193.73-42.95Q198.43-42.95 200.56-40.65 202.68-38.35 202.68-33.15L202.68-33.15 202.68-31.25Q202.68-25.1 198.28-23.9L198.28-23.9Q200.98-23.2 202.08-20.65 203.18-18.1 203.18-13.9L203.18-13.9Q203.18-7.05 201.13-3.53 199.08 0 193.73 0L193.73 0 182.08 0ZM190.48-26.8L192.23-26.8Q193.33-26.8 193.73-27.63 194.13-28.45 194.13-29.95L194.13-29.95 194.13-34.25Q194.13-36.35 192.28-36.35L192.28-36.35 190.48-36.35 190.48-26.8ZM191.33-7.55Q194.68-7.55 194.68-10.75L194.68-10.75 194.68-16.1Q194.68-18.05 194.11-19.05 193.53-20.05 192.08-20.05L192.08-20.05 190.48-20.05 190.48-7.6 191.33-7.55ZM216.28 0.4Q211.08 0.4 208.38-2.78 205.68-5.95 205.68-11.7L205.68-11.7 205.68-32.15Q205.68-37.7 208.38-40.53 211.08-43.35 216.28-43.35L216.28-43.35Q221.48-43.35 224.18-40.53 226.88-37.7 226.88-32.15L226.88-32.15 226.88-11.7Q226.88-5.9 224.18-2.75 221.48 0.4 216.28 0.4L216.28 0.4ZM216.28-7.5Q217.43-7.5 217.83-8.5 218.23-9.5 218.23-11.3L218.23-11.3 218.23-32.3Q218.23-33.7 217.86-34.58 217.48-35.45 216.33-35.45L216.33-35.45Q214.18-35.45 214.18-32.2L214.18-32.2 214.18-11.25Q214.18-9.4 214.63-8.45 215.08-7.5 216.28-7.5L216.28-7.5ZM230.33 0L230.33-42.95 243.53-42.95Q246.68-42.95 248.4-41.53 250.13-40.1 250.73-37.52 251.33-34.95 251.33-30.95L251.33-30.95Q251.33-27.3 250.38-25.25 249.43-23.2 247.08-22.4L247.08-22.4Q249.03-22 249.9-20.45 250.78-18.9 250.78-16.25L250.78-16.25 250.68 0 242.28 0 242.28-16.8Q242.28-18.6 241.58-19.1 240.88-19.6 239.03-19.6L239.03-19.6 239.03 0 230.33 0ZM239.08-27.05L241.13-27.05Q242.93-27.05 242.93-30.95L242.93-30.95Q242.93-32.65 242.78-33.5 242.63-34.35 242.23-34.68 241.83-35 241.08-35L241.08-35 239.08-35 239.08-27.05Z" opacity="1" transform="matrix(1,0,0,1,0,0)" fill="#000000" class="undefined-text-0" data-fill-palette-color="primary" id="text-0"></path></svg></g></svg></g></svg></g></svg></g><g><svg viewBox="0 0 166.29992617459808 166.29992617459808" height="166.29992617459808" width="166.29992617459808"><g><svg></svg></g><g id="icon-0"><svg viewBox="0 0 166.29992617459808 166.29992617459808" height="166.29992617459808" width="166.29992617459808"><g><path d="M0 83.15c0-45.922 37.228-83.15 83.15-83.15 45.922 0 83.15 37.228 83.15 83.15 0 45.922-37.228 83.15-83.15 83.15-45.922 0-83.15-37.228-83.15-83.15zM83.15 160.044c42.468 0 76.894-34.427 76.894-76.894 0-42.468-34.427-76.894-76.894-76.894-42.468 0-76.894 34.427-76.894 76.894 0 42.468 34.427 76.894 76.894 76.894z" data-fill-palette-color="tertiary" fill="#000000" stroke="transparent"></path></g><g transform="matrix(1,0,0,1,38.120266239760184,37.41948511377933)"><svg viewBox="0 0 90.05939369507772 91.46095594703942" height="91.46095594703942" width="90.05939369507772"><g><svg xmlns="http://www.w3.org/2000/svg" xmlnsXlink="http://www.w3.org/1999/xlink" version="1.1" x="0" y="0" viewBox="7.573891454658995 6.5 83.205108545341 84.5" enable-background="new 0 0 100 100" xmlSpace="preserve" height="91.46095594703942" width="90.05939369507772" class="icon-yu-0" data-fill-palette-color="accent" id="yu-0"><path d="M89.613 48.892L52.229 7.617C51.566 6.904 50.638 6.5 49.666 6.5s-1.901 0.404-2.563 1.117l-38.592 41.5c-0.948 1.02-1.202 2.504-0.646 3.782C8.422 54.174 9.682 55 11.074 55H21v30c0 3.313 2.592 6 5.906 6H30h2 0.667H34c2.209 0 4-1.791 4-4V72c0-2.209 1.791-4 4-4h14c2.209 0 4 1.791 4 4v15c0 2.209 1.791 4 4 4h6.905C74.219 91 77 88.313 77 85V55h10.259c0.008 0.001 0.015 0 0.02 0 1.934 0 3.5-1.566 3.5-3.5C90.778 50.464 90.328 49.533 89.613 48.892z" fill="#475be8" data-fill-palette-color="accent"></path></svg></g></svg></g></svg></g></svg></g></svg></g><defs></defs></svg><rect width="395.52" height="110.62562063735257" fill="none" stroke="none" visibility="hidden"></rect></g></svg></g></svg>